<svg width="128" height="128" viewBox="0 0 128 128" fill="none" xmlns="http://www.w3.org/2000/svg">
<rect width="128" height="128" fill="#1E1E1E"/>
<rect x="16" y="16" width="96" height="96" rx="16" fill="#D9D9D9"/>
<g filter="url(#filter0_d_0_1)">
<rect x="20" y="20" width="88" height="88" rx="12" stroke="#605DFF" stroke-width="8" shape-rendering="crispEdges"/>
</g>
<path d="M35.264 72L29.408 55.488H35.072L38.384 66.528H38.48L41.816 55.488H47.24L41.408 72H35.264ZM58.9597 59.712V72H53.6557V59.712H48.2317V55.488H64.3597V59.712H58.9597ZM79.232 66.264C79.232 68.328 78.64 69.848 77.456 70.824C76.288 71.8 74.6 72.288 72.392 72.288C70.184 72.288 68.488 71.8 67.304 70.824C66.136 69.848 65.552 68.328 65.552 66.264V66.048H70.52V66.24C70.52 66.992 70.656 67.528 70.928 67.848C71.216 68.168 71.648 68.328 72.224 68.328C72.8 68.328 73.224 68.168 73.496 67.848C73.784 67.528 73.928 66.992 73.928 66.24V55.488H79.232V66.264ZM89.7198 55.2C91.8318 55.2 93.5678 55.632 94.9278 56.496C96.2878 57.344 96.9838 58.608 97.0158 60.288V60.576H92.0478V60.48C92.0478 60 91.8718 59.6 91.5198 59.28C91.1678 58.96 90.6318 58.8 89.9118 58.8C89.2078 58.8 88.6638 58.904 88.2798 59.112C87.9118 59.32 87.7278 59.576 87.7278 59.88C87.7278 60.312 87.9838 60.632 88.4958 60.84C89.0078 61.048 89.8318 61.264 90.9678 61.488C92.2958 61.76 93.3838 62.048 94.2318 62.352C95.0958 62.64 95.8478 63.12 96.4878 63.792C97.1278 64.464 97.4558 65.376 97.4718 66.528C97.4718 68.48 96.8078 69.928 95.4798 70.872C94.1678 71.816 92.4078 72.288 90.1998 72.288C87.6238 72.288 85.6158 71.856 84.1758 70.992C82.7518 70.128 82.0398 68.6 82.0398 66.408H87.0558C87.0558 67.24 87.2718 67.8 87.7038 68.088C88.1358 68.36 88.8078 68.496 89.7198 68.496C90.3918 68.496 90.9438 68.424 91.3758 68.28C91.8238 68.136 92.0478 67.84 92.0478 67.392C92.0478 66.992 91.7998 66.696 91.3038 66.504C90.8238 66.296 90.0318 66.08 88.9278 65.856C87.5838 65.568 86.4718 65.272 85.5918 64.968C84.7118 64.648 83.9438 64.128 83.2878 63.408C82.6318 62.688 82.3038 61.712 82.3038 60.48C82.3038 58.672 82.9998 57.344 84.3918 56.496C85.7998 55.632 87.5758 55.2 89.7198 55.2Z" fill="#605DFF"/>
<defs>
<filter id="filter0_d_0_1" x="12" y="16" width="104" height="104" filterUnits="userSpaceOnUse" color-interpolation-filters="sRGB">
<feFlood flood-opacity="0" result="BackgroundImageFix"/>
<feColorMatrix in="SourceAlpha" type="matrix" values="0 0 0 0 0 0 0 0 0 0 0 0 0 0 0 0 0 0 127 0" result="hardAlpha"/>
<feOffset dy="4"/>
<feGaussianBlur stdDeviation="2"/>
<feComposite in2="hardAlpha" operator="out"/>
<feColorMatrix type="matrix" values="0 0 0 0 0 0 0 0 0 0 0 0 0 0 0 0 0 0 0.25 0"/>
<feBlend mode="normal" in2="BackgroundImageFix" result="effect1_dropShadow_0_1"/>
<feBlend mode="normal" in="SourceGraphic" in2="effect1_dropShadow_0_1" result="shape"/>
</filter>
</defs>
</svg>
