<svg width="128" height="128" viewBox="0 0 128 128" fill="none" xmlns="http://www.w3.org/2000/svg">
<rect width="128" height="128" fill="#1E1E1E"/>
<g clip-path="url(#clip0_0_1)">
<rect width="128" height="128" fill="white"/>
<rect x="2" y="2" width="124" height="124" stroke="#605DFF" stroke-width="4"/>
<path d="M32.5938 72L23.9531 49.5938H27.3906L34.3594 68.0312L41.3438 49.5938H44.7656L36.125 72H32.5938ZM46.6719 49.5938H64.5938V52.7969H57.2344V72H54.0312V52.7969H46.6719V49.5938ZM62.6719 64.9531H65.875V68.7969H74.9375V49.5938H78.1406V68.7969C78.1406 69.2344 78.0521 69.651 77.875 70.0469C77.7083 70.4323 77.4792 70.7708 77.1875 71.0625C76.9062 71.3542 76.5677 71.5833 76.1719 71.75C75.7865 71.9167 75.375 72 74.9375 72H65.875C65.4375 72 65.0208 71.9167 64.625 71.75C64.2396 71.5833 63.901 71.3542 63.6094 71.0625C63.3281 70.7708 63.099 70.4323 62.9219 70.0469C62.7552 69.651 62.6719 69.2344 62.6719 68.7969V64.9531ZM87.1094 62.4062C86.6719 62.4062 86.2552 62.3229 85.8594 62.1562C85.474 61.9792 85.1354 61.75 84.8438 61.4688C84.5521 61.1771 84.3229 60.8385 84.1562 60.4531C83.9896 60.0573 83.9062 59.6406 83.9062 59.2031V52.7969C83.9062 52.3594 83.9896 51.9479 84.1562 51.5625C84.3229 51.1667 84.5521 50.8281 84.8438 50.5469C85.1354 50.2552 85.474 50.026 85.8594 49.8594C86.2552 49.6823 86.6719 49.5938 87.1094 49.5938H97.9844C98.4219 49.5938 98.8333 49.6823 99.2188 49.8594C99.6146 50.026 99.9583 50.2552 100.25 50.5469C100.542 50.8281 100.771 51.1667 100.938 51.5625C101.104 51.9479 101.188 52.3594 101.188 52.7969V55.6875H97.9844V52.7969H87.1094V59.2031H97.9844C98.4219 59.2031 98.8333 59.2865 99.2188 59.4531C99.6146 59.6198 99.9583 59.849 100.25 60.1406C100.542 60.4323 100.771 60.776 100.938 61.1719C101.104 61.5573 101.188 61.9688 101.188 62.4062V68.7969C101.188 69.2344 101.104 69.651 100.938 70.0469C100.771 70.4323 100.542 70.7708 100.25 71.0625C99.9583 71.3542 99.6146 71.5833 99.2188 71.75C98.8333 71.9167 98.4219 72 97.9844 72H86.7969C86.3594 72 85.9427 71.9167 85.5469 71.75C85.1615 71.5833 84.8229 71.3542 84.5312 71.0625C84.2396 70.7708 84.0104 70.4323 83.8438 70.0469C83.6771 69.651 83.5938 69.2344 83.5938 68.7969V65.9219H86.7969V68.7969H97.9844V62.4062H87.1094Z" fill="#605DFF"/>
</g>
<defs>
<clipPath id="clip0_0_1">
<rect width="128" height="128" fill="white"/>
</clipPath>
</defs>
</svg>
